<?xml version="1.0" encoding="UTF-8" ?>
<!DOCTYPE svg PUBLIC "-//W3C//DTD SVG 1.1//EN" "http://www.w3.org/Graphics/SVG/1.1/DTD/svg11.dtd">
<svg width="500pt" height="592pt" viewBox="0 0 500 592" version="1.1" xmlns="http://www.w3.org/2000/svg">
<g id="#e1404aff">
<path fill="#e1404a" opacity="1.00" d=" M 100.00 49.06 C 138.46 20.59 185.23 3.48 232.99 0.55 C 250.72 -0.32 268.57 -0.05 286.15 2.56 C 327.33 8.47 367.05 24.71 400.38 49.65 C 441.05 79.79 472.25 122.67 487.81 170.89 C 503.16 217.98 503.57 269.80 488.87 317.10 C 472.00 372.28 434.57 420.68 385.92 451.56 C 355.04 431.91 319.90 419.10 283.65 414.13 C 283.43 355.86 283.53 297.58 283.60 239.31 C 261.11 238.96 238.60 239.14 216.11 239.22 C 215.99 248.02 215.70 256.82 216.15 265.61 C 220.58 265.69 225.01 265.65 229.45 265.65 C 229.54 314.62 229.37 363.59 229.52 412.56 C 212.84 414.34 196.21 417.02 180.08 421.74 C 156.70 428.44 134.28 438.51 113.78 451.59 C 57.71 416.27 16.86 357.34 4.46 292.13 C -3.40 251.12 -0.82 208.04 12.60 168.45 C 28.55 120.93 59.62 78.71 100.00 49.06 M 179.58 109.47 C 148.82 124.79 123.30 150.60 108.77 181.78 C 96.75 207.23 92.15 236.13 95.67 264.04 C 99.38 296.24 114.23 326.90 136.68 350.21 C 157.93 372.32 185.79 388.41 215.94 394.45 C 215.86 389.96 216.37 385.46 215.84 380.98 C 181.97 372.82 151.35 351.81 131.83 322.93 C 115.88 299.61 107.30 271.26 108.11 242.99 C 108.49 208.52 122.89 174.58 146.89 149.91 C 167.60 128.26 195.37 113.52 224.89 108.41 C 255.58 103.07 288.04 107.76 315.68 122.27 C 346.63 138.19 371.43 165.90 383.27 198.69 C 391.36 220.42 393.36 244.22 389.94 267.10 C 385.38 296.39 370.86 323.95 349.58 344.55 C 334.77 359.11 316.60 369.98 297.15 377.13 C 296.76 381.75 296.76 386.40 297.15 391.02 C 325.82 382.28 351.61 364.64 370.63 341.53 C 388.64 319.80 400.35 292.90 403.87 264.89 C 406.50 243.19 404.69 220.89 398.02 200.05 C 388.55 170.18 369.46 143.53 344.47 124.66 C 317.30 103.97 283.14 92.64 248.99 93.02 C 225.00 93.04 201.03 98.71 179.58 109.47 M 231.91 161.20 C 213.92 164.76 197.23 174.29 184.81 187.75 C 170.54 203.14 161.89 223.96 162.21 245.04 C 161.10 279.37 183.90 312.77 215.85 325.00 C 215.97 320.33 216.30 315.65 215.81 311.00 C 215.38 309.86 213.95 309.64 213.08 308.96 C 193.83 298.34 179.68 278.71 176.40 256.90 C 173.34 238.75 177.96 219.53 188.51 204.50 C 196.36 193.31 207.29 184.26 219.87 178.88 C 235.54 171.99 253.58 170.79 270.05 175.43 C 286.65 180.06 301.58 190.58 311.30 204.85 C 321.37 219.33 325.90 237.62 323.42 255.10 C 321.28 272.20 312.51 288.30 299.53 299.60 C 298.57 300.61 297.05 301.46 297.01 303.03 C 296.57 307.92 297.25 312.83 296.96 317.73 C 299.56 317.11 301.55 315.22 303.66 313.70 C 317.96 302.76 328.88 287.35 334.00 270.05 C 339.73 251.20 338.48 230.40 330.73 212.30 C 323.47 195.31 310.58 180.81 294.62 171.51 C 275.95 160.46 253.12 156.87 231.91 161.20 Z" />
</g>
<g id="#ffffffff">
<path fill="#ffffff" opacity="1.00" d=" M 139.54 471.74 C 147.44 468.60 156.85 474.57 157.78 482.89 C 159.25 490.63 153.00 498.85 145.03 499.01 C 137.62 499.76 130.51 493.47 130.30 486.05 C 129.69 479.89 133.77 473.80 139.54 471.74 Z" />
<path fill="#ffffff" opacity="1.00" d=" M 39.57 483.70 C 53.32 476.24 69.98 475.40 84.99 479.01 C 93.52 481.49 102.68 485.67 107.10 493.83 C 110.83 500.66 106.15 510.86 98.01 511.02 C 92.14 510.24 87.22 506.52 81.83 504.33 C 73.24 500.43 62.73 499.56 54.25 504.21 C 46.71 508.33 42.29 516.55 40.89 524.81 C 39.61 532.72 39.83 540.99 42.21 548.67 C 44.70 556.61 50.43 563.98 58.57 566.59 C 66.51 569.11 76.19 568.41 82.52 562.52 C 87.19 558.41 89.02 552.14 89.41 546.13 C 83.98 545.94 78.51 546.34 73.14 545.41 C 69.63 544.76 65.87 543.16 64.23 539.76 C 61.92 534.84 63.11 527.80 68.35 525.27 C 74.73 522.06 82.13 523.22 89.01 523.00 C 95.74 523.28 102.89 522.01 109.23 524.87 C 113.54 526.76 115.63 531.50 116.01 535.95 C 117.21 551.02 112.78 567.05 101.86 577.87 C 93.30 586.83 81.01 591.44 68.77 592.00 L 61.41 592.00 C 48.01 591.20 35.00 584.96 26.50 574.49 C 13.82 559.68 11.24 538.71 14.49 520.06 C 17.02 505.06 26.10 491.04 39.57 483.70 Z" />
<path fill="#ffffff" opacity="1.00" d=" M 237.23 480.30 C 240.16 476.95 245.22 476.50 249.26 477.77 C 253.41 479.13 256.30 482.63 258.86 485.98 C 273.89 506.18 288.96 526.34 303.97 546.55 C 304.05 529.38 303.97 512.20 304.01 495.02 C 304.10 490.08 304.47 484.67 307.67 480.65 C 313.12 474.18 325.60 476.40 327.55 485.02 C 329.14 489.85 328.86 495.00 328.88 500.02 C 328.87 525.03 328.88 550.03 328.88 575.04 C 328.81 579.39 328.66 584.19 325.79 587.74 C 323.18 590.87 318.67 591.45 314.88 590.78 C 310.06 589.88 306.36 586.29 303.40 582.62 C 288.34 562.45 273.62 542.03 258.47 521.93 C 258.54 538.28 258.48 554.62 258.50 570.97 C 258.45 576.00 258.42 581.35 255.87 585.86 C 251.97 592.89 239.98 592.84 236.15 585.76 C 233.99 581.89 233.65 577.33 233.62 572.99 C 233.64 546.32 233.61 519.66 233.63 492.99 C 233.77 488.59 234.28 483.79 237.23 480.30 Z" />
<path fill="#ffffff" opacity="1.00" d=" M 184.50 485.42 C 188.15 477.97 200.79 478.09 204.09 485.80 C 207.33 493.05 206.04 501.24 206.29 508.94 C 210.90 508.98 215.95 509.09 219.78 512.03 C 224.74 515.54 224.76 524.15 219.57 527.46 C 215.65 530.03 210.79 529.93 206.29 530.12 C 206.34 543.73 206.30 557.34 206.31 570.95 C 206.25 575.87 206.18 581.15 203.53 585.49 C 200.28 590.67 192.58 591.26 187.67 588.27 C 183.13 585.13 182.30 579.12 182.11 574.02 C 181.99 559.39 182.09 544.75 182.06 530.12 C 178.23 529.94 174.07 529.64 171.02 527.05 C 166.46 523.52 166.48 515.57 171.16 512.16 C 174.28 509.80 178.29 509.34 182.06 508.92 C 182.38 501.10 180.93 492.71 184.50 485.42 Z" />
<path fill="#ffffff" opacity="1.00" d=" M 450.51 485.40 C 453.20 479.93 460.67 478.63 465.80 481.21 C 469.37 483.05 471.01 487.09 471.69 490.84 C 472.66 496.82 472.23 502.90 472.28 508.93 C 476.91 508.99 481.99 509.08 485.83 512.06 C 490.76 515.61 490.74 524.22 485.52 527.49 C 481.61 530.03 476.77 529.92 472.29 530.12 C 472.34 543.75 472.30 557.39 472.31 571.02 C 472.25 575.92 472.17 581.17 469.54 585.48 C 466.32 590.64 458.70 591.24 453.77 588.34 C 449.17 585.26 448.31 579.20 448.11 574.10 C 447.99 559.44 448.09 544.78 448.06 530.12 C 444.42 529.93 440.51 529.70 437.49 527.42 C 432.51 524.08 432.30 515.74 437.13 512.18 C 440.25 509.80 444.28 509.34 448.06 508.92 C 448.38 501.09 446.92 492.69 450.51 485.40 Z" />
<path fill="#ffffff" opacity="1.00" d=" M 139.53 505.70 C 143.90 504.26 149.51 504.75 152.55 508.57 C 155.48 512.34 155.91 517.35 156.05 521.96 C 156.08 538.63 156.05 555.31 156.07 571.98 C 156.00 576.56 155.72 581.42 153.28 585.44 C 150.00 590.74 142.03 591.36 137.16 588.00 C 132.69 584.49 132.06 578.30 131.90 573.03 C 131.87 555.69 131.82 538.35 131.93 521.01 C 132.08 515.29 133.39 507.91 139.53 505.70 Z" />
<path fill="#ffffff" opacity="1.00" d=" M 377.52 505.79 C 387.36 504.01 398.00 505.00 406.80 510.01 C 417.17 515.91 424.43 526.73 426.34 538.47 C 427.84 547.98 427.34 558.04 423.55 566.98 C 418.72 578.43 408.31 587.60 396.01 590.05 C 386.16 592.03 375.46 591.15 366.55 586.28 C 355.76 580.37 348.14 569.25 346.22 557.12 C 344.72 547.33 345.37 536.93 349.61 527.87 C 354.80 516.72 365.32 508.00 377.52 505.79 M 381.49 528.82 C 375.52 530.92 371.81 536.99 370.92 543.03 C 369.85 550.22 370.86 558.44 376.18 563.82 C 381.50 569.40 391.45 569.34 396.70 563.70 C 401.45 558.82 402.71 551.59 402.13 545.03 C 401.70 539.46 399.17 533.85 394.53 530.55 C 390.81 527.87 385.79 527.40 381.49 528.82 Z" />
</g>
</svg>
